<svg width="300" height="303" viewBox="0 0 300 303" fill="none" xmlns="http://www.w3.org/2000/svg">
<path d="M136.589 24.9458C136.589 38.7229 125.4 49.8916 111.597 49.8916C97.7939 49.8916 86.6042 38.7229 86.6042 24.9458C86.6042 11.1687 97.7939 0 111.597 0C125.4 0 136.589 11.1687 136.589 24.9458Z" fill="url(#paint0_linear_472_7009)"/>
<path fill-rule="evenodd" clip-rule="evenodd" d="M68.8206 125.039C43.0834 114.399 19.6981 98.8021 0 79.1409L37.5115 41.6997C52.2835 56.4441 69.8207 68.1398 89.1217 76.1196C108.423 84.0993 129.109 88.2063 150 88.2063C170.891 88.2063 191.577 84.0993 210.878 76.1196C230.179 68.1398 247.716 56.4441 262.489 41.6997L300 79.1409C280.302 98.8021 256.917 114.399 231.179 125.039C230.331 125.39 229.479 125.735 228.626 126.075C245.678 144.861 256.066 169.786 256.066 197.133C256.066 255.602 208.579 303 150 303C91.4213 303 43.934 255.602 43.934 197.133C43.934 169.786 54.3218 144.861 71.3738 126.075C70.5208 125.735 69.6695 125.39 68.8206 125.039ZM202.423 197.133C202.423 226.031 178.952 249.458 150 249.458C121.048 249.458 97.5766 226.031 97.5766 197.133C97.5766 168.234 121.048 144.807 150 144.807C178.952 144.807 202.423 168.234 202.423 197.133Z" fill="url(#paint1_linear_472_7009)"/>
<path d="M187.184 49.8916C200.987 49.8916 212.177 38.7229 212.177 24.9458C212.177 11.1687 200.987 0 187.184 0C173.381 0 162.191 11.1687 162.191 24.9458C162.191 38.7229 173.381 49.8916 187.184 49.8916Z" fill="url(#paint2_linear_472_7009)"/>
<defs>
<linearGradient id="paint0_linear_472_7009" x1="150" y1="0" x2="150" y2="303" gradientUnits="userSpaceOnUse">
<stop stop-color="#FF6917"/>
<stop offset="1" stop-color="#FDAB5F"/>
</linearGradient>
<linearGradient id="paint1_linear_472_7009" x1="150" y1="0" x2="150" y2="303" gradientUnits="userSpaceOnUse">
<stop stop-color="#FF6917"/>
<stop offset="1" stop-color="#FDAB5F"/>
</linearGradient>
<linearGradient id="paint2_linear_472_7009" x1="150" y1="0" x2="150" y2="303" gradientUnits="userSpaceOnUse">
<stop stop-color="#FF6917"/>
<stop offset="1" stop-color="#FDAB5F"/>
</linearGradient>
</defs>
</svg>
